# xmcd
#
# Track frame offsets: 
#        150
#        13575
#        27262
#        45087
#        57167
#        69625
#        85105
#        108127
#        127112
#        136770
#        147447
#        166160
#        182140
#        198055
#        221660
#        239642
#
# Disc length: 3357 seconds
#
# Revision: 0
# Processed by: cddbd v1.5.2PL0 Copyright (c) Steve Scherf et al.
# Submitted via: ExactAudioCopy v0.99pb4
#
DISCID=d80d1b10
DTITLE=張 也 - 深情民歌(中文流行歌集２）
DYEAR=1998
DGENRE=Folk
TTITLE0=枉凝眉
TTITLE1=望星空
TTITLE2=情深誼長
TTITLE3=彌渡山歌
TTITLE4=班鳩調
TTITLE5=紅梅贊
TTITLE6=緬桂花開十里香
TTITLE7=小河淌水
TTITLE8=初一到十五
TTITLE9=秋收
TTITLE10=五歌放羊
TTITLE11=月亮走我也走
TTITLE12=沂蒙小調
TTITLE13=北風吹，紅頭繩
TTITLE14=在希望的田野上
TTITLE15=我的家鄉沂蒙山
EXTD=
EXTT0=
EXTT1=
EXTT2=
EXTT3=
EXTT4=
EXTT5=
EXTT6=
EXTT7=
EXTT8=
EXTT9=
EXTT10=
EXTT11=
EXTT12=
EXTT13=
EXTT14=
EXTT15=
PLAYORDER=
